<svg xmlns="http://www.w3.org/2000/svg" viewBox="0 0 128 128" fill="none">
  <path d="M36 32C35 32 34 32.5 33.5 33.2C32.8 34.2 32.5 35.5 33 37C34 40 36 43 38 46C40 49 42 53 45 57C47 61 49 65 51 69C52.5 71.5 54 73.5 56 75C57 76 58.5 76.8 60 76.8C61.5 76.8 63 76 64 75C66 73.5 67.5 71.5 69 69C71 65 73 61 75 57C77 53 79 49 82 46C84 43 86 40 87 37C87.5 35.5 87.2 34.2 86.5 33.2C86 32.5 85 32 84 32C82.5 32 81.2 32.8 80.5 34C79.5 36 78.5 38.5 76.5 41.5C74.5 44.5 72.5 48 70.5 52C68.5 56 66.5 60 65 62.5C64.2 64 63.5 65.2 63 65.8C62.5 65.2 61.8 64 61 62.5C60 60 58 56 56 52C54 48 52 44.5 50 41.5C48 38.5 47 36 46 34C45.3 32.8 44 32 42.5 32C41.5 32 40.5 32.5 39.8 33.2C39.2 34.2 38.8 35.5 39.3 37C40.3 40 42.3 43 44.3 46Z" fill="currentColor"/>
  <path d="M76 32L104 32C106 32 108 33.5 109 35.5L118 64C119 67.5 118 71 116 73.5C114 76 111 77.5 108 76.5L90 71L96 98C97 101.5 96 105 94 107.5C92 110 88.5 111.5 85 110.5C82.5 109.5 80.5 107.5 79.5 105L67 58L76 32Z" fill="currentColor"/>
</svg>
